<?xml version="1.0" encoding="utf-8"?>
<!-- Generator: Adobe Illustrator 16.0.0, SVG Export Plug-In . SVG Version: 6.00 Build 0)  -->
<!DOCTYPE svg PUBLIC "-//W3C//DTD SVG 1.1//EN" "http://www.w3.org/Graphics/SVG/1.1/DTD/svg11.dtd">
<svg version="1.1" id="Layer_1" xmlns="http://www.w3.org/2000/svg" xmlns:xlink="http://www.w3.org/1999/xlink" x="0px" y="0px"
	 width="48px" height="37px" viewBox="0 0 48 37" enable-background="new 0 0 48 37" xml:space="preserve">
<g>
	<path fill="#F30202" d="M46.621,0.25L46.621,0.25c0.364,0,0.649,0.138,0.871,0.421l0.037,0.046
		c0.534,0.742,0.021,1.991-0.601,2.581c-0.412,0.401-1.235,0.83-2.706,1.528c-0.487,0.222-1.216,0.756-1.607,1.043l-0.144,0.105
		c-1.673,1.274-2.894,4.122-4.186,7.137l-0.047,0.111c-0.006,0.014-0.585,1.472-2.949,3.027c-0.066,0.041-0.267,0.167-0.3,0.394
		c-0.037,0.251,0.141,0.454,0.365,0.709c0.085,0.098,0.183,0.209,0.282,0.337c0.548,0.721,1.7,3.861,1.56,8.492
		c-0.033,0.742,0.223,1.169,0.519,1.663c0.068,0.113,0.14,0.232,0.213,0.364c0.309,0.545,0.732,0.813,1.106,1.05
		c0.511,0.322,0.849,0.536,0.83,1.321c-0.02,1.18,0.441,1.886,0.777,2.401c0.305,0.469,0.433,0.688,0.266,1.004
		c-0.317,0.634-0.291,1.236-0.265,1.819c0.005,0.125,0.011,0.251,0.013,0.372c0,0.064,0.005,0.134,0.011,0.204
		c0.009,0.111,0.022,0.28-0.019,0.323c-0.02,0.021-0.086,0.045-0.212,0.045l-0.065-0.002c-2.348-0.131-2.568-2.808-2.499-5.125
		l0.003-0.093c0.065-0.274-0.098-0.657-0.204-0.747c-0.39-0.296-1.957-1.503-2.094-1.644c-2.288-2.296-3.728-4.305-4.528-6.321
		c-0.599-1.533-1.173-2.872-2.14-3.744c-1.096-0.998-2.5-1.603-3.758-1.618c-6.617-0.034-8.941-2.337-10.809-4.188
		c-0.441-0.437-0.857-0.85-1.308-1.206c-0.067-0.048-0.322-0.195-0.502-0.219l-0.032-0.004l-0.032,0.004
		c-0.171,0.021-0.295,0.14-0.377,0.219c-0.018,0.018-0.035,0.035-0.083,0.075c-0.781,0.815-1.553,1.133-2.754,1.133
		c-1.52,0-3.15-0.764-4.341-1.322c-0.799-0.374-1.376-0.645-1.77-0.645c-0.172,0-0.31,0.051-0.412,0.155
		c-0.219,0.227-0.268,0.526-0.311,0.79c-0.063,0.385-0.107,0.524-0.354,0.572C1.987,12.833,1.909,12.84,1.83,12.84
		c-0.426,0-0.876-0.214-1.203-0.573c-0.265-0.291-0.401-0.624-0.375-0.912c0.115-1.138,1.111-1.791,3.045-1.997
		C3.488,9.338,3.672,9.33,3.849,9.33c0.691,0,1.258,0.131,1.563,0.202c0.1,0.023,0.175,0.04,0.222,0.046
		C5.68,9.584,5.725,9.587,5.768,9.587c0.251,0,0.464-0.1,0.617-0.288C6.661,8.96,6.669,8.416,6.593,8.053
		c-0.142-0.676-0.74-0.85-1.269-1.003L5.215,7.018C5.094,6.982,4.967,6.965,4.829,6.965c-0.284,0-0.566,0.077-0.815,0.145
		C3.805,7.167,3.607,7.22,3.447,7.22c-0.058,0-0.108-0.007-0.15-0.021c-0.308-0.106-0.418-0.232-0.6-0.442
		C2.587,6.63,2.461,6.485,2.269,6.321C2.074,6.155,1.872,6.024,1.692,5.909C1.25,5.625,1.019,5.458,1.019,5.076
		c0.003-0.241,0.159-0.367,0.435-0.57c0.243-0.178,0.517-0.379,0.658-0.738c0.07-0.182,0.093-0.362,0.113-0.521
		c0.015-0.115,0.03-0.234,0.057-0.285c0.135-0.235,0.33-0.33,0.578-0.449c0.205-0.099,0.438-0.211,0.655-0.422
		c0.329-0.322,0.568-0.783,0.76-1.153c0.093-0.18,0.216-0.417,0.295-0.51C4.658,0.5,4.802,0.684,4.893,0.8
		c0.249,0.316,0.463,0.59,0.734,0.59l0.078-0.007l0.036-0.011C5.95,1.31,6.125,1.102,6.328,0.861
		c0.137-0.162,0.357-0.423,0.498-0.474c0.153,0.184,0.51,0.829,0.783,1.381l0.065,0.131l0.146,0.007
		c5.223,0.255,11.616,5.842,13.717,7.678c0.334,0.292,0.574,0.501,0.704,0.6c0.073,0.055,0.183,0.152,0.331,0.282
		c0.805,0.707,2.688,2.362,5.754,3.687c1.296,0.565,2.601,0.851,3.877,0.851c0.194,0,0.388-0.007,0.577-0.021
		c1.893-0.126,4.046-1.745,5.358-4.026c0.438-0.748,0.806-1.643,1.195-2.591c1.07-2.601,2.284-5.549,5.556-7.477
		C45.274,0.666,45.989,0.25,46.621,0.25 M46.621,0c-0.704,0-1.452,0.438-1.864,0.677c-4.569,2.692-5.243,7.432-6.834,10.154
		c-1.253,2.178-3.304,3.779-5.159,3.903c-0.185,0.013-0.372,0.02-0.561,0.02c-1.213,0-2.5-0.273-3.777-0.83
		c-3.613-1.562-5.56-3.583-6.034-3.94c-0.973-0.739-8.459-8.03-14.559-8.327c0,0-0.744-1.5-0.93-1.526
		C6.891,0.129,6.88,0.129,6.868,0.129c-0.435,0-0.877,0.907-1.199,1.004C5.656,1.138,5.642,1.14,5.627,1.14
		c-0.298,0-0.775-0.983-1.068-0.983c-0.007,0-0.014,0-0.02,0.001C4.233,0.2,3.936,1.33,3.34,1.913
		C2.901,2.338,2.367,2.311,2.065,2.839c-0.104,0.192-0.068,0.53-0.186,0.84C1.626,4.32,0.777,4.387,0.769,5.073
		c0,0.762,0.714,0.907,1.338,1.438c0.496,0.425,0.53,0.725,1.109,0.924C3.289,7.46,3.366,7.47,3.447,7.47
		c0.404,0,0.902-0.255,1.382-0.255c0.106,0,0.211,0.012,0.315,0.043c0.553,0.163,1.085,0.279,1.204,0.846
		C6.45,8.59,6.359,9.337,5.768,9.337c-0.033,0-0.066-0.002-0.102-0.007C5.481,9.305,4.774,9.08,3.849,9.08
		c-0.185,0-0.378,0.009-0.578,0.03c-1.45,0.154-3.105,0.618-3.267,2.22c-0.076,0.817,0.843,1.76,1.826,1.76
		c0.094,0,0.189-0.009,0.284-0.027c0.742-0.143,0.392-1.013,0.797-1.433c0.054-0.054,0.132-0.079,0.232-0.079
		c0.903,0,3.593,1.967,6.111,1.967c1.186,0,2.063-0.3,2.935-1.21c0.078-0.057,0.185-0.203,0.31-0.218
		c0.113,0.015,0.324,0.128,0.39,0.175c2.262,1.793,3.967,5.399,12.26,5.441c1.164,0.014,2.498,0.558,3.591,1.553
		c0.96,0.866,1.528,2.251,2.075,3.65c0.836,2.106,2.322,4.139,4.584,6.407c0.119,0.135,1.98,1.561,2.119,1.666
		c0.025,0.021,0.168,0.334,0.106,0.51c-0.039,1.38-0.245,5.34,2.731,5.506C40.385,37,40.411,37,40.437,37
		c0.639,0,0.47-0.479,0.47-0.822c-0.01-0.683-0.129-1.371,0.226-2.08c0.507-0.957-1.051-1.418-1.017-3.513
		c0.037-1.567-1.291-1.302-1.969-2.498c-0.381-0.687-0.736-1.065-0.699-1.894c0.145-4.76-1.034-7.896-1.61-8.654
		c-0.455-0.587-0.847-0.806-0.414-1.078c2.481-1.632,3.05-3.15,3.05-3.15c1.32-3.081,2.512-5.89,4.15-7.138
		c0.332-0.241,1.177-0.88,1.703-1.12c1.527-0.725,2.346-1.156,2.777-1.576c0.711-0.675,1.27-2.107,0.588-2.96h-0.002
		C47.392,0.136,47.013,0,46.621,0L46.621,0z"/>
</g>
</svg>
